<?xml version="1.0" encoding="UTF-8"?>
<svg width="121px" height="28px" viewBox="0 0 121 28" version="1.1" xmlns="http://www.w3.org/2000/svg" xmlns:xlink="http://www.w3.org/1999/xlink">
    <!-- Generator: Sketch 42 (36781) - http://www.bohemiancoding.com/sketch -->
    <title>Combined Shape</title>
    <desc>Created with Sketch.</desc>
    <defs></defs>
    <g id="Page-1" stroke="none" stroke-width="1" fill="none" fill-rule="evenodd">
        <path d="M10.3086514,27.726784 C7.35276571,27.726784 4.89568571,26.7307307 2.93741143,24.738624 C0.979137143,22.7465173 7.10542736e-15,20.3151573 7.10542736e-15,17.444544 L7.10542736e-15,17.3672107 C7.10542736e-15,14.4996907 0.985295238,12.0559573 2.95588571,10.0360107 C4.92647619,8.02225067 7.40203048,7.013824 10.3825486,7.013824 C13.1413752,7.013824 15.3952381,7.756224 17.1441371,9.23793067 C17.7353143,9.71121067 18.0309029,10.354624 18.0309029,11.1681707 C18.0309029,11.8641707 17.784579,12.4549973 17.2919314,12.953024 C16.7992838,13.4479573 16.1957905,13.695424 15.4814514,13.695424 C14.8656419,13.695424 14.3237295,13.5067307 13.8557143,13.138624 C12.7718895,12.2972373 11.6018514,11.876544 10.3456,11.876544 C8.96618667,11.876544 7.82078095,12.4085973 6.90938286,13.472704 C5.99798476,14.5337173 5.54228571,15.8081707 5.54228571,17.296064 L5.54228571,17.3672107 C5.54228571,18.9262507 6.00414286,20.2347307 6.92785714,21.286464 C7.85157143,22.3381973 9.06471619,22.864064 10.5672914,22.864064 C11.8728076,22.864064 13.1044267,22.4031573 14.2621486,21.4875307 C14.7301638,21.1441707 15.2351276,20.9678507 15.77704,20.9678507 C16.4421143,20.9678507 17.002501,21.2060373 17.4582,21.676224 C17.913899,22.1433173 18.1417486,22.715584 18.1417486,23.383744 C18.1417486,24.0735573 17.8707924,24.6705707 17.32888,25.165504 C15.456819,26.873024 13.1167429,27.726784 10.3086514,27.726784 Z M38.8883714,24.719136 C36.8315676,26.723616 34.2759581,27.725856 31.2215429,27.725856 C28.1671276,27.725856 25.6238343,26.7298027 23.5916629,24.737696 C21.5594914,22.7455893 20.5434057,20.3142293 20.5434057,17.443616 L20.5434057,17.369376 C20.5434057,14.474016 21.5718076,12.024096 23.6286114,10.019616 C25.6854152,8.015136 28.2410248,7.012896 31.29544,7.012896 C34.3498552,7.012896 36.8931486,8.00894933 38.92532,10.001056 C40.9574914,11.9931627 41.9735771,14.4245227 41.9735771,17.295136 L41.9735771,17.369376 C41.9735771,20.264736 40.9451752,22.714656 38.8883714,24.719136 Z M31.29544,22.863136 C32.84728,22.863136 34.0912152,22.343456 35.0272457,21.304096 C35.9632762,20.264736 36.4312914,18.9779093 36.4312914,17.443616 L36.4312914,17.369376 C36.4312914,15.8598293 35.9448019,14.566816 34.9718229,13.490336 C33.9988438,12.413856 32.7487505,11.875616 31.2215429,11.875616 C29.6697029,11.875616 28.4257676,12.395296 27.4897371,13.434656 C26.5537067,14.474016 26.0856914,15.7608427 26.0856914,17.295136 L26.0856914,17.369376 C26.0856914,18.8789227 26.572181,20.171936 27.54516,21.248416 C28.518139,22.324896 29.7682324,22.863136 31.29544,22.863136 Z M46.2950205,24.6817067 L46.2950205,9.98218667 C46.2950205,9.19029333 46.5721348,8.52213333 47.1263633,7.97770667 C47.6805919,7.43328 48.3395081,7.16106667 49.1031119,7.16106667 C49.8667157,7.16106667 50.5256319,7.43328 51.0798605,7.97770667 C51.634089,8.52213333 51.9112033,9.19029333 51.9112033,9.98218667 L51.9112033,24.6817067 C51.9112033,25.4736 51.634089,26.1448533 51.0798605,26.6861867 C50.5256319,27.2306133 49.8667157,27.5028267 49.1031119,27.5028267 C48.3395081,27.5028267 47.6805919,27.2306133 47.1263633,26.6861867 C46.5721348,26.1448533 46.2950205,25.4736 46.2950205,24.6817067 Z M45.9624833,2.70666667 L45.9624833,2.63242667 C45.9624833,1.84053333 46.2580719,1.20330667 46.849249,0.720746667 C47.4404262,0.238186667 48.1917138,0 49.1031119,0 C50.01451,0 50.7657976,0.238186667 51.3569748,0.720746667 C51.9481519,1.20330667 52.2437405,1.84053333 52.2437405,2.63242667 L52.2437405,2.70666667 C52.2437405,3.49856 51.9481519,4.14197333 51.3569748,4.64 C50.7657976,5.13493333 50.01451,5.37930667 49.1031119,5.37930667 C48.1917138,5.37930667 47.4404262,5.13493333 46.849249,4.64 C46.2580719,4.14197333 45.9624833,3.49856 45.9624833,2.70666667 Z M57.195157,24.6817067 L57.195157,9.98218667 C57.195157,9.19029333 57.4661131,8.52213333 58.0080255,7.97770667 C58.5499379,7.43328 59.2150122,7.16106667 60.0032484,7.16106667 C60.7914846,7.16106667 61.4565589,7.43328 61.9984712,7.97770667 C62.5403836,8.52213333 62.8113398,9.19029333 62.8113398,9.98218667 L62.8113398,10.2049067 C64.4617093,8.07669333 66.3953512,7.01258667 68.6122655,7.01258667 C70.7306503,7.01258667 72.3810198,7.66837333 73.5633741,8.97994667 C74.7457284,10.2946133 75.3369055,12.0980267 75.3369055,14.3994667 L75.3369055,24.6817067 C75.3369055,25.4736 75.0597912,26.1448533 74.5055627,26.6861867 C73.9513341,27.2306133 73.2924179,27.5028267 72.5288141,27.5028267 C71.7652103,27.5028267 71.1062941,27.2306133 70.5520655,26.6861867 C69.997837,26.1448533 69.7207227,25.4736 69.7207227,24.6817067 L69.7207227,16.1812267 C69.7207227,14.8696533 69.4251341,13.8674133 68.833957,13.1745067 C68.2427798,12.4846933 67.4052789,12.1351467 66.3214541,12.1351467 C65.2376293,12.1351467 64.3816541,12.4846933 63.7535284,13.1745067 C63.1254027,13.8674133 62.8113398,14.8696533 62.8113398,16.1812267 L62.8113398,24.6817067 C62.8113398,25.4736 62.5403836,26.1448533 61.9984712,26.6861867 C61.4565589,27.2306133 60.7914846,27.5028267 60.0032484,27.5028267 C59.2150122,27.5028267 58.5499379,27.2306133 58.0080255,26.6861867 C57.4661131,26.1448533 57.195157,25.4736 57.195157,24.6817067 Z M82.0606218,27.2797973 C81.2723856,27.2797973 80.6196275,27.072544 80.1023475,26.6487573 C79.5850675,26.228064 79.3264275,25.6836373 79.3264275,25.0185707 L79.3264275,24.9041173 C79.3264275,23.991584 79.745178,23.0759573 80.582679,22.1603307 L89.7828732,11.9492373 L81.9497761,11.9492373 C81.3093342,11.9492373 80.7674218,11.7296107 80.324039,11.2810773 C79.8806561,10.8387307 79.6589647,10.3066773 79.6589647,9.68801067 C79.6589647,9.041504 79.8868142,8.50017067 80.3425132,8.05163733 C80.7982123,7.60929067 81.3339666,7.38347733 81.9497761,7.38347733 L94.2536504,7.38347733 C95.0418866,7.38347733 95.6946447,7.59691733 96.2119247,8.01451733 C96.7292047,8.43521067 96.9878447,8.97963733 96.9878447,9.64779733 L96.9878447,9.75915733 C96.9878447,10.674784 96.5690942,11.593504 95.7315932,12.5091307 L86.4944504,22.7140373 L94.6970332,22.7140373 C95.3374751,22.7140373 95.8793875,22.9460373 96.3227704,23.4007573 C96.7661532,23.861664 96.9878447,24.3968107 96.9878447,25.0185707 C96.9878447,25.6372373 96.7661532,26.1692907 96.3227704,26.6116373 C95.8793875,27.0601707 95.3374751,27.2797973 94.6970332,27.2797973 L82.0606218,27.2797973 Z M117.845929,24.719136 C115.789125,26.723616 113.233516,27.725856 110.1791,27.725856 C107.124685,27.725856 104.581392,26.7298027 102.54922,24.737696 C100.517049,22.7455893 99.5009633,20.3142293 99.5009633,17.443616 L99.5009633,17.369376 C99.5009633,14.474016 100.529365,12.024096 102.586169,10.019616 C104.642973,8.015136 107.198582,7.012896 110.252998,7.012896 C113.307413,7.012896 115.850706,8.00894933 117.882878,10.001056 C119.915049,11.9931627 120.931135,14.4245227 120.931135,17.295136 L120.931135,17.369376 C120.931135,20.264736 119.902733,22.714656 117.845929,24.719136 Z M110.252998,22.863136 C111.804838,22.863136 113.048773,22.343456 113.984803,21.304096 C114.920834,20.264736 115.388849,18.9779093 115.388849,17.443616 L115.388849,17.369376 C115.388849,15.8598293 114.90236,14.566816 113.92938,13.490336 C112.956401,12.413856 111.706308,11.875616 110.1791,11.875616 C108.62726,11.875616 107.383325,12.395296 106.447295,13.434656 C105.511264,14.474016 105.043249,15.7608427 105.043249,17.295136 L105.043249,17.369376 C105.043249,18.8789227 105.529739,20.171936 106.502718,21.248416 C107.475697,22.324896 108.72579,22.863136 110.252998,22.863136 Z" id="Combined-Shape" fill="#0055FF"></path>
    </g>
</svg>